<svg width="34" height="48" viewBox="0 0 34 48" fill="none" xmlns="http://www.w3.org/2000/svg">
<path fill-rule="evenodd" clip-rule="evenodd" d="M19.0168 34.7545C27.1704 33.6693 33.4671 26.5453 33.4671 17.9185C33.4671 8.54125 26.0271 0.939453 16.8493 0.939453C7.6715 0.939453 0.231445 8.54125 0.231445 17.9185C0.231445 26.5452 6.5281 33.6693 14.6817 34.7545V45.013C14.6817 46.2101 15.6522 47.1805 16.8493 47.1805C18.0464 47.1805 19.0168 46.2101 19.0168 45.013V34.7545Z" fill="#FFFAEA"/>
<path d="M18.9986 15.8199L17.8907 15.7683C17.1473 14.903 15.9958 14.1852 14.6136 14.1852C14.1238 14.1852 13.6506 14.2404 13.2041 14.3453C13.815 14.1283 14.4922 14.0117 15.205 14.0117C16.6286 14.0117 18.0576 14.8736 18.9986 15.8199Z" fill="#8B7C2D"/>
<path d="M20.1045 18.1624C19.234 20.861 18.0938 23.32 15.7792 23.6672C15.5953 23.6947 15.4043 23.709 15.2052 23.709C12.4993 23.709 10.3057 21.2257 10.3057 18.1624C10.3057 16.3433 11.4958 14.9517 13.2043 14.3446C13.6508 14.2398 14.124 14.1846 14.6138 14.1846C15.996 14.1846 17.1475 14.9024 17.8909 15.7676L19.0121 15.8643C19.8601 16.7167 20.2916 17.5825 20.1045 18.1624Z" fill="url(#paint0_linear_651_25418)"/>
<path d="M24.7646 25.2451H12.1924V19.3776C12.1924 19.3776 12.2479 18.8358 12.1924 17.3595C12.7847 16.3132 14.2658 16.2198 16.9498 15.8087C17.2546 15.7913 17.5459 15.7809 17.8261 15.7781C18.2123 15.7742 18.5767 15.7851 18.924 15.8134C19.3791 15.8501 19.8054 15.9169 20.2141 16.0186C20.8497 16.2798 21.545 16.7325 22.4413 17.4904C25.792 20.3681 24.7646 25.2451 24.7646 25.2451Z" fill="#0F8A44"/>
<path d="M19.7288 15.8305L19.4395 15.3221L23.9833 13.1406L19.7288 15.8305Z" fill="url(#paint1_linear_651_25418)"/>
<path d="M18.9473 14.6737L19.278 15.0569L20.8263 13.2812L18.9473 14.6737Z" fill="#CECFD1"/>
<path d="M18.6201 14.3319L17.9551 13.8731L21.2022 9.85938L18.6201 14.3319Z" fill="url(#paint2_linear_651_25418)"/>
<path d="M17.5861 13.6337L17.1201 13.4403L18.2739 11.1943L17.5861 13.6337Z" fill="#CED0D2"/>
<path d="M16.8046 13.346C16.8046 13.346 16.0823 13.2014 15.8838 13.1944C16.8293 9.37684 17.0903 8.32324 17.0903 8.32324L16.8046 13.346Z" fill="url(#paint3_linear_651_25418)"/>
<path d="M15.3504 13.1754L14.877 13.2059L14.9544 10.7705L15.3504 13.1754Z" fill="#CED2D4"/>
<path d="M14.4488 13.2662L13.5391 13.471L12.7764 8.25098L14.4488 13.2662Z" fill="url(#paint4_linear_651_25418)"/>
<path d="M13.1818 13.5813L12.7009 13.7825L11.9453 11.6504L13.1818 13.5813Z" fill="#CFD0D2"/>
<path d="M12.3736 13.9944L11.6783 14.5673L8.99121 10.2158L12.3736 13.9944Z" fill="url(#paint5_linear_651_25418)"/>
<path d="M11.4006 14.8707L11.0399 15.3338L9.34473 13.4102L11.4006 14.8707Z" fill="#CFD0D2"/>
<path d="M10.8366 15.6372L10.4267 16.5933L6.20996 13.6836L10.8366 15.6372Z" fill="url(#paint6_linear_651_25418)"/>
<path d="M10.3482 16.8319L10.2544 17.4124L7.90527 16.3955L10.3482 16.8319Z" fill="#CFD0D2"/>
<path d="M10.232 17.6289V18.6904L5.33496 18.0084L10.232 17.6289Z" fill="url(#paint7_linear_651_25418)"/>
<path d="M12.8601 22.3175L11.1924 23.1088C11.1924 23.1088 12.6749 26.7273 16.908 25.0455C17.7843 24.5598 18.7098 23.5757 18.2039 21.5078C17.6486 20.0379 16.0195 19.6141 15.2792 19.3277C14.5386 19.0412 13.2058 18.5334 13.2921 17.6286C13.3785 16.7238 14.5017 16.4999 15.2914 16.7987C16.0811 17.0974 16.3774 17.9697 16.3774 17.9697L18.1176 17.322C18.1176 17.322 17.4511 14.8476 14.1191 15.138C10.787 15.4283 10.4291 19.9878 13.8969 20.735C15.563 21.3455 16.9205 21.6692 16.4021 23.1017C15.7973 24.198 13.7242 24.198 12.8601 22.3169V22.3175Z" fill="white"/>
<path d="M21.0172 20.25V20.798H19.4397V21.5828H20.6101V22.1433H19.4397V23.0529H21.0666V23.6258H18.833V20.25H21.0172Z" fill="white"/>
<path d="M22.1897 23.6258H21.585V20.25H22.2514L23.5473 22.6417V20.25H24.1396V23.6258H23.5595L22.1156 21.1094L22.1897 23.6258Z" fill="white"/>
<path d="M18.8682 24.45L19.0076 24.434C19.0159 24.4887 19.0331 24.529 19.0586 24.5548C19.0842 24.5806 19.1189 24.5935 19.1625 24.5935C19.2086 24.5935 19.2433 24.582 19.2669 24.5593C19.2905 24.5366 19.3019 24.5097 19.3019 24.4792C19.3019 24.4595 19.2969 24.4427 19.2872 24.429C19.2775 24.4153 19.2602 24.4032 19.2355 24.3931C19.2189 24.3864 19.1805 24.3743 19.1208 24.357C19.0439 24.3348 18.9901 24.3073 18.9592 24.2748C18.9156 24.2291 18.894 24.1734 18.894 24.1078C18.894 24.0655 18.9043 24.0259 18.9248 23.9889C18.9454 23.9522 18.9748 23.9242 19.0134 23.9048C19.052 23.8855 19.0986 23.876 19.1531 23.876C19.2422 23.876 19.3091 23.899 19.3541 23.9446C19.3991 23.9903 19.4227 24.0514 19.4249 24.1277L19.2816 24.135C19.2755 24.0924 19.2625 24.0615 19.2422 24.0427C19.2219 24.024 19.1917 24.0147 19.1514 24.0147C19.1111 24.0147 19.0773 24.0248 19.0536 24.0447C19.0384 24.0576 19.0309 24.0747 19.0309 24.0963C19.0309 24.1159 19.0381 24.1327 19.0523 24.1467C19.0703 24.1644 19.1142 24.1829 19.1839 24.2022C19.2536 24.2216 19.3052 24.2415 19.3385 24.2619C19.3719 24.2824 19.398 24.3107 19.4168 24.3463C19.4357 24.3819 19.4452 24.4262 19.4452 24.4786C19.4452 24.5262 19.4338 24.5708 19.4113 24.6123C19.3888 24.6538 19.3569 24.6846 19.3155 24.7051C19.2741 24.7252 19.2228 24.7353 19.1611 24.7353C19.0714 24.7353 19.0026 24.711 18.9545 24.6625C18.9065 24.614 18.8776 24.5431 18.8684 24.4503L18.8682 24.45Z" fill="#FEE819"/>
<path d="M20.0322 24.3104C20.0322 24.2258 20.0431 24.1549 20.0647 24.0974C20.0808 24.0551 20.1028 24.0172 20.1308 23.9836C20.1586 23.95 20.1894 23.925 20.2224 23.9088C20.2666 23.8869 20.3177 23.876 20.3754 23.876C20.4801 23.876 20.5637 23.9138 20.6264 23.9898C20.6892 24.0657 20.7206 24.1714 20.7206 24.3065C20.7206 24.4416 20.6895 24.5456 20.6273 24.6213C20.5651 24.6969 20.4818 24.7348 20.3774 24.7348C20.273 24.7348 20.188 24.6972 20.1255 24.6218C20.0633 24.5464 20.0322 24.4427 20.0322 24.3104ZM20.1799 24.3048C20.1799 24.399 20.1986 24.4702 20.2355 24.5187C20.2727 24.5672 20.3196 24.5916 20.3768 24.5916C20.434 24.5916 20.4809 24.5674 20.5173 24.5192C20.5537 24.471 20.5723 24.3987 20.5723 24.3026C20.5723 24.2064 20.5545 24.1364 20.5187 24.0896C20.4829 24.0427 20.4357 24.0192 20.3765 24.0192C20.3174 24.0192 20.2699 24.043 20.2338 24.0904C20.1977 24.1378 20.1797 24.2092 20.1797 24.3048H20.1799Z" fill="#FEE819"/>
<path d="M21.332 24.7205V23.8965H21.4753V24.5804H21.8316V24.7202H21.332V24.7205Z" fill="#FEE819"/>
<path d="M23.0694 24.7204H22.9136L22.8517 24.5318H22.5679L22.5093 24.7204H22.3574L22.6337 23.8896H22.7853L23.0694 24.7204ZM22.8056 24.3916L22.7078 24.0833L22.612 24.3916H22.8056Z" fill="#FEE819"/>
<path d="M23.6419 24.7204V23.8896H23.9434C24.0192 23.8896 24.0745 23.8972 24.1086 23.9121C24.1431 23.9269 24.1706 23.9536 24.1911 23.9917C24.2117 24.0298 24.2222 24.0735 24.2222 24.1226C24.2222 24.1848 24.2067 24.2364 24.1753 24.277C24.1439 24.3176 24.0973 24.3432 24.0348 24.3538C24.0659 24.3748 24.0914 24.3981 24.1114 24.4236C24.1317 24.4488 24.1589 24.4939 24.1931 24.5584L24.2797 24.7204H24.1084L24.0048 24.5396C23.9679 24.4752 23.9429 24.4342 23.9293 24.4174C23.9157 24.4006 23.9012 24.3891 23.8862 24.383C23.871 24.3768 23.8471 24.3737 23.814 24.3737H23.7849V24.7204H23.6416H23.6419ZM23.7852 24.2411H23.8912C23.9601 24.2411 24.0029 24.2378 24.0201 24.231C24.0373 24.2243 24.0506 24.2125 24.0603 24.196C24.0701 24.1795 24.0748 24.1587 24.0748 24.1338C24.0748 24.1058 24.0684 24.0833 24.0556 24.0659C24.0428 24.0486 24.0248 24.0379 24.0017 24.0334C23.9901 24.0315 23.9554 24.0306 23.8971 24.0306H23.7852V24.2414V24.2411Z" fill="#FEE819"/>
<path d="M25.3169 25.245H24.7644C24.7644 25.245 25.7918 20.368 22.4411 17.4903C21.5448 16.7324 20.8495 16.2798 20.2139 16.0186C21.2171 16.2683 22.1151 16.731 23.077 17.4903C26.4276 20.368 25.3169 25.245 25.3169 25.245Z" fill="#116031"/>
<defs>
<linearGradient id="paint0_linear_651_25418" x1="10.3057" y1="18.9466" x2="20.1475" y2="18.9466" gradientUnits="userSpaceOnUse">
<stop stop-color="#ED881F"/>
<stop offset="0.08" stop-color="#EDA320"/>
<stop offset="0.17" stop-color="#EDBA22"/>
<stop offset="0.28" stop-color="#EDCB23"/>
<stop offset="0.4" stop-color="#EDD724"/>
<stop offset="0.58" stop-color="#EDDE24"/>
<stop offset="1" stop-color="#EEE125"/>
</linearGradient>
<linearGradient id="paint1_linear_651_25418" x1="24.2118" y1="12.6347" x2="18.7404" y2="16.0639" gradientUnits="userSpaceOnUse">
<stop offset="0.12" stop-color="#FA3222"/>
<stop offset="0.23" stop-color="#F84B22"/>
<stop offset="0.6" stop-color="#F29B23"/>
<stop offset="0.87" stop-color="#EFCD24"/>
<stop offset="1" stop-color="#EEE125"/>
</linearGradient>
<linearGradient id="paint2_linear_651_25418" x1="21.8156" y1="9.05747" x2="17.7669" y2="14.7396" gradientUnits="userSpaceOnUse">
<stop offset="0.12" stop-color="#FA3222"/>
<stop offset="0.23" stop-color="#F84B22"/>
<stop offset="0.6" stop-color="#F29B23"/>
<stop offset="0.87" stop-color="#EFCD24"/>
<stop offset="1" stop-color="#EEE125"/>
</linearGradient>
<linearGradient id="paint3_linear_651_25418" x1="16.5894" y1="7.60318" x2="16.3251" y2="15.6007" gradientUnits="userSpaceOnUse">
<stop offset="0.12" stop-color="#FA3222"/>
<stop offset="0.23" stop-color="#F84B22"/>
<stop offset="0.6" stop-color="#F29B23"/>
<stop offset="0.87" stop-color="#EFCD24"/>
<stop offset="1" stop-color="#EEE125"/>
</linearGradient>
<linearGradient id="paint4_linear_651_25418" x1="15.2935" y1="11.7417" x2="12.658" y2="10.6751" gradientUnits="userSpaceOnUse">
<stop offset="0.12" stop-color="#FA3222"/>
<stop offset="0.23" stop-color="#F84B22"/>
<stop offset="0.6" stop-color="#F29B23"/>
<stop offset="0.87" stop-color="#EFCD24"/>
<stop offset="1" stop-color="#EEE125"/>
</linearGradient>
<linearGradient id="paint5_linear_651_25418" x1="13.7564" y1="14.0274" x2="8.10983" y2="11.3776" gradientUnits="userSpaceOnUse">
<stop offset="0.12" stop-color="#FA3222"/>
<stop offset="0.23" stop-color="#F84B22"/>
<stop offset="0.6" stop-color="#F29B23"/>
<stop offset="0.87" stop-color="#EFCD24"/>
<stop offset="1" stop-color="#EEE125"/>
</linearGradient>
<linearGradient id="paint6_linear_651_25418" x1="12.0042" y1="16.6126" x2="6.10263" y2="14.2961" gradientUnits="userSpaceOnUse">
<stop offset="0.34" stop-color="#FA3222"/>
<stop offset="0.43" stop-color="#F84B22"/>
<stop offset="0.71" stop-color="#F29B23"/>
<stop offset="0.9" stop-color="#EFCD24"/>
<stop offset="1" stop-color="#EEE125"/>
</linearGradient>
<linearGradient id="paint7_linear_651_25418" x1="11.2103" y1="17.917" x2="5.58132" y2="18.614" gradientUnits="userSpaceOnUse">
<stop offset="0.31" stop-color="#FA3222"/>
<stop offset="0.4" stop-color="#F84B22"/>
<stop offset="0.69" stop-color="#F29B23"/>
<stop offset="0.9" stop-color="#EFCD24"/>
<stop offset="1" stop-color="#EEE125"/>
</linearGradient>
</defs>
</svg>
