<svg width="24" height="24" viewBox="0 0 24 24" fill="none" xmlns="http://www.w3.org/2000/svg">
<path d="M11 17.0005L13 19.0005C13.197 19.1975 13.4308 19.3537 13.6882 19.4603C13.9456 19.5669 14.2214 19.6218 14.5 19.6218C14.7786 19.6218 15.0544 19.5669 15.3118 19.4603C15.5692 19.3537 15.803 19.1975 16 19.0005C16.197 18.8035 16.3532 18.5697 16.4598 18.3123C16.5665 18.0549 16.6213 17.7791 16.6213 17.5005C16.6213 17.2219 16.5665 16.9461 16.4598 16.6887C16.3532 16.4313 16.197 16.1975 16 16.0005M14.0002 14.0005L16.5002 16.5005C16.8981 16.8983 17.4376 17.1218 18.0002 17.1218C18.5628 17.1218 19.1024 16.8983 19.5002 16.5005C19.8981 16.1027 20.1215 15.5631 20.1215 15.0005C20.1215 14.4379 19.8981 13.8983 19.5002 13.5005L15.6202 9.6205C15.0577 9.0587 14.2952 8.74314 13.5002 8.74314C12.7052 8.74314 11.9427 9.0587 11.3802 9.6205L10.5002 10.5005C10.1024 10.8983 9.56284 11.1218 9.00023 11.1218C8.43762 11.1218 7.89805 10.8983 7.50023 10.5005C7.1024 10.1027 6.87891 9.56311 6.87891 9.0005C6.87891 8.43789 7.1024 7.89833 7.50023 7.5005L10.3102 4.6905C11.2225 3.78065 12.4121 3.20106 13.6909 3.04348C14.9696 2.8859 16.2644 3.15933 17.3702 3.8205L17.8402 4.1005C18.266 4.35749 18.7723 4.44662 19.2602 4.3505L21.0002 4.0005M21 3.00049L22 14.0005H20M3 3.00049L2 14.0005L8.5 20.5005C8.89782 20.8983 9.43739 21.1218 10 21.1218C10.5626 21.1218 11.1022 20.8983 11.5 20.5005C11.8978 20.1027 12.1213 19.5631 12.1213 19.0005C12.1213 18.4379 11.8978 17.8983 11.5 17.5005M3 4.00049H11" stroke="white" stroke-width="2" stroke-linecap="round" stroke-linejoin="round"/>
</svg>
