<svg width="40" height="40" viewBox="0 0 40 40" fill="none" xmlns="http://www.w3.org/2000/svg">
<path d="M28.7943 0.228516C27.6327 0.228516 26.5188 0.685062 25.6975 1.49772C24.8761 2.31038 24.4147 3.41258 24.4147 4.56185V17.5618C24.4147 18.7111 24.8761 19.8133 25.6975 20.626C26.5188 21.4386 27.6327 21.8952 28.7943 21.8952C29.375 21.8952 29.932 22.1235 30.3427 22.5298C30.7533 22.9361 30.984 23.4872 30.984 24.0618V26.2285C30.984 27.3778 30.5226 28.48 29.7013 29.2926C28.88 30.1053 27.766 30.5618 26.6045 30.5618C26.0237 30.5618 25.4667 30.7901 25.0561 31.1965C24.6454 31.6028 24.4147 32.1539 24.4147 32.7285V37.0619C24.4147 37.6365 24.6454 38.1876 25.0561 38.5939C25.4667 39.0002 26.0237 39.2285 26.6045 39.2285C30.0891 39.2285 33.431 37.8589 35.8949 35.4209C38.3589 32.9829 39.7432 29.6763 39.7432 26.2285V4.56185C39.7432 3.41258 39.2817 2.31038 38.4604 1.49772C37.6391 0.685062 36.5251 0.228516 35.3636 0.228516H28.7943Z" fill="#F9F9F9"/>
<path d="M4.7067 0.228516C3.54517 0.228516 2.43122 0.685062 1.60989 1.49772C0.788564 2.31038 0.327148 3.41258 0.327148 4.56185V17.5618C0.327148 18.7111 0.788564 19.8133 1.60989 20.626C2.43122 21.4386 3.54517 21.8952 4.7067 21.8952C5.28747 21.8952 5.84445 22.1235 6.25511 22.5298C6.66577 22.9361 6.89648 23.4872 6.89648 24.0618V26.2285C6.89648 27.3778 6.43507 28.48 5.61374 29.2926C4.79241 30.1053 3.67846 30.5618 2.51693 30.5618C1.93616 30.5618 1.37918 30.7901 0.96852 31.1965C0.557856 31.6028 0.327148 32.1539 0.327148 32.7285V37.0619C0.327148 37.6365 0.557856 38.1876 0.96852 38.5939C1.37918 39.0002 1.93616 39.2285 2.51693 39.2285C6.00152 39.2285 9.34339 37.8589 11.8074 35.4209C14.2713 32.9829 15.6556 29.6763 15.6556 26.2285V4.56185C15.6556 3.41258 15.1942 2.31038 14.3729 1.49772C13.5515 0.685062 12.4376 0.228516 11.276 0.228516H4.7067Z" fill="#F9F9F9"/>
</svg>
