<svg width="30" height="30" viewBox="0 0 30 30" fill="none" xmlns="http://www.w3.org/2000/svg">
<path d="M14.9719 27.2573C21.7419 27.2573 27.23 21.7692 27.23 14.9993C27.23 8.22933 21.7419 2.74121 14.9719 2.74121C8.20199 2.74121 2.71387 8.22933 2.71387 14.9993C2.71387 21.7692 8.20199 27.2573 14.9719 27.2573Z" stroke="white" stroke-width="2" stroke-linecap="round" stroke-linejoin="round"/>
<path d="M14.9719 22.3541C19.0339 22.3541 22.3268 19.0612 22.3268 14.9993C22.3268 10.9373 19.0339 7.64444 14.9719 7.64444C10.91 7.64444 7.61709 10.9373 7.61709 14.9993C7.61709 19.0612 10.91 22.3541 14.9719 22.3541Z" stroke="white" stroke-width="2" stroke-linecap="round" stroke-linejoin="round"/>
<path d="M14.9719 17.4509C16.3259 17.4509 17.4235 16.3533 17.4235 14.9993C17.4235 13.6453 16.3259 12.5477 14.9719 12.5477C13.6179 12.5477 12.5203 13.6453 12.5203 14.9993C12.5203 16.3533 13.6179 17.4509 14.9719 17.4509Z" stroke="white" stroke-width="2" stroke-linecap="round" stroke-linejoin="round"/>
</svg>
