<svg width="24" height="24" viewBox="0 0 24 24" fill="none" xmlns="http://www.w3.org/2000/svg">
<path d="M4.00048 13.9997C3.81125 14.0003 3.62571 13.9473 3.46543 13.8467C3.30516 13.746 3.17671 13.602 3.09503 13.4313C3.01335 13.2606 2.98177 13.0703 3.00398 12.8823C3.02619 12.6944 3.10126 12.5166 3.22048 12.3697L13.1205 2.16967C13.1947 2.08396 13.2959 2.02603 13.4075 2.00541C13.519 1.98478 13.6342 2.00269 13.7342 2.05618C13.8342 2.10967 13.9131 2.19557 13.9578 2.29978C14.0026 2.40399 14.0106 2.52032 13.9805 2.62967L12.0605 8.64967C12.0039 8.8012 11.9849 8.96419 12.0051 9.12468C12.0253 9.28517 12.0841 9.43836 12.1766 9.5711C12.269 9.70385 12.3923 9.81219 12.5358 9.88684C12.6793 9.96148 12.8387 10.0002 13.0005 9.99967H20.0005C20.1897 9.99903 20.3752 10.0521 20.5355 10.1527C20.6958 10.2533 20.8242 10.3973 20.9059 10.568C20.9876 10.7387 21.0192 10.9291 20.997 11.117C20.9748 11.3049 20.8997 11.4827 20.7805 11.6297L10.8805 21.8297C10.8062 21.9154 10.705 21.9733 10.5935 21.9939C10.482 22.0146 10.3668 21.9967 10.2668 21.9432C10.1667 21.8897 10.0879 21.8038 10.0431 21.6996C9.9984 21.5954 9.9904 21.479 10.0205 21.3697L11.9405 15.3497C11.9971 15.1982 12.0161 15.0352 11.9959 14.8747C11.9757 14.7142 11.9168 14.561 11.8244 14.4282C11.732 14.2955 11.6087 14.1872 11.4652 14.1125C11.3217 14.0379 11.1622 13.9991 11.0005 13.9997H4.00048Z" stroke="white" stroke-width="2" stroke-linecap="round" stroke-linejoin="round"/>
</svg>
